# xmcd
#
# Track frame offsets:
#	150
#	20862
#	43337
#	63550
#	80225
#	101500
#	120762
#	142500
#	161112
#	179237
#	201537
#
# Disc length: 2938 seconds
#
# Revision: 1
# Processed by: cddbd v1.5.2PL0 Copyright (c) Steve Scherf et al.
# Submitted via: EZCDAudioConverter 8.0.2.1
#
DISCID=a30b780b
DTITLE=刘德华 - 谢谢您的爱系列 - 真我的风采
DYEAR=1992
DGENRE=World Pop
TTITLE0=谢谢您的爱
TTITLE1=假装
TTITLE2=真我的风采
TTITLE3=无声的一晚
TTITLE4=我狠心伤吗？
TTITLE5=火烫
TTITLE6=愈望愈伤心
TTITLE7=独自去偷欢
TTITLE8=再入我怀中
TTITLE9=仍唱我的歌
TTITLE10=真我的风采（R&B Version）
EXTD=
EXTT0=
EXTT1=
EXTT2=
EXTT3=
EXTT4=
EXTT5=
EXTT6=
EXTT7=
EXTT8=
EXTT9=
EXTT10=
PLAYORDER=
